<svg xmlns="http://www.w3.org/2000/svg" viewBox="0 0 800 500">
  <defs>
    <linearGradient id="bg" x1="0" x2="1" y1="0" y2="1">
      <stop offset="0" stop-color="#07051a"/>
      <stop offset="0.55" stop-color="#04010a"/>
      <stop offset="1" stop-color="#07061a"/>
    </linearGradient>
    <linearGradient id="neon" x1="0" x2="1">
      <stop offset="0" stop-color="#6dff7a"/>
      <stop offset="0.45" stop-color="#00F5FF"/>
      <stop offset="1" stop-color="#B026FF"/>
    </linearGradient>
    <filter id="glow" x="-50%" y="-50%" width="200%" height="200%">
      <feGaussianBlur stdDeviation="3.2" result="blur"/>
      <feColorMatrix
        type="matrix"
        values="1 0 0 0 0  0 1 0 0 0  0 0 1 0 0  0 0 0 18 -8"
        result="glow"/>
      <feMerge>
        <feMergeNode in="glow"/>
        <feMergeNode in="SourceGraphic"/>
      </feMerge>
    </filter>
    <pattern id="grid" width="26" height="26" patternUnits="userSpaceOnUse">
      <path d="M26 0H0V26" fill="none" stroke="rgba(109,255,122,0.14)" stroke-width="1"/>
    </pattern>
  </defs>

  <rect width="800" height="500" fill="url(#bg)"/>
  <rect width="800" height="500" fill="url(#grid)" opacity="0.5"/>

  <!-- node network -->
  <g filter="url(#glow)" fill="none" stroke="url(#neon)" stroke-width="4" opacity="0.88">
    <path d="M170 140 C240 120 300 120 360 160"/>
    <path d="M360 160 C440 210 520 210 620 170"/>
    <path d="M170 310 C250 285 330 295 400 340"/>
    <path d="M400 340 C490 390 575 390 640 355"/>
    <path d="M360 160 C370 240 405 290 430 320"/>
    <path d="M300 240 C360 230 410 250 465 280"/>
  </g>

  <g filter="url(#glow)">
    <circle cx="360" cy="160" r="10" fill="#00F5FF" opacity="0.9"/>
    <circle cx="620" cy="170" r="10" fill="#B026FF" opacity="0.85"/>
    <circle cx="170" cy="310" r="10" fill="#6dff7a" opacity="0.9"/>
    <circle cx="400" cy="340" r="10" fill="#00F5FF" opacity="0.85"/>
    <circle cx="640" cy="355" r="10" fill="#B026FF" opacity="0.85"/>
  </g>

  <!-- architecture blocks -->
  <g filter="url(#glow)">
    <rect x="120" y="105" width="160" height="90" rx="18" fill="rgba(0,245,255,0.07)" stroke="url(#neon)" stroke-width="4"/>
    <rect x="520" y="115" width="160" height="90" rx="18" fill="rgba(176,38,255,0.07)" stroke="url(#neon)" stroke-width="4"/>
    <rect x="110" y="275" width="220" height="115" rx="20" fill="rgba(109,255,122,0.07)" stroke="url(#neon)" stroke-width="4"/>
    <rect x="440" y="265" width="250" height="125" rx="24" fill="rgba(0,245,255,0.05)" stroke="url(#neon)" stroke-width="4"/>
  </g>

  <!-- tiny labels -->
  <g font-family="Orbitron, system-ui, sans-serif" font-size="14" fill="rgba(255,255,255,0.92)" filter="url(#glow)">
    <text x="150" y="155">API / GATEWAY</text>
    <text x="550" y="155">SERVICES</text>
    <text x="140" y="340">DATA LAYER</text>
    <text x="475" y="340">CACHING + QUEUES</text>
  </g>

  <!-- title -->
  <g font-family="Orbitron, system-ui, sans-serif" filter="url(#glow)" fill="rgba(255,255,255,0.92)">
    <text x="55" y="465" font-size="26" letter-spacing="2">SYSTEM DESIGN // SCALABLE ARCHITECTURES</text>
  </g>
</svg>

